<?xml version="1.0" standalone="no"?>
<!DOCTYPE svg PUBLIC "-//W3C//DTD SVG 20010904//EN"
 "http://www.w3.org/TR/2001/REC-SVG-20010904/DTD/svg10.dtd">
<svg version="1.0" xmlns="http://www.w3.org/2000/svg"
 width="886.000000pt" height="886.000000pt" viewBox="0 0 886.000000 886.000000"
 preserveAspectRatio="xMidYMid meet">
<metadata>
Created by potrace 1.14, written by Peter Selinger 2001-2017
</metadata>
<g transform="translate(0.000000,886.000000) scale(0.100000,-0.100000)"
fill="#000000" stroke="none">
<path d="M557 6744 c-1 -1 -43 -4 -94 -8 -313 -22 -454 -106 -454 -270 0 -87
-2 -84 341 -573 8 -11 71 -100 140 -197 69 -97 150 -212 180 -255 30 -43 63
-89 72 -102 10 -13 53 -73 95 -134 43 -60 81 -111 85 -113 5 -2 8 -8 8 -13 0
-6 21 -39 48 -74 26 -35 97 -134 157 -219 61 -86 141 -199 178 -251 38 -53 67
-101 64 -108 -3 -8 -119 -175 -259 -373 -139 -198 -272 -386 -295 -419 -56
-80 -263 -378 -413 -595 -66 -96 -126 -182 -133 -190 -7 -9 -59 -85 -116 -170
-130 -192 -154 -243 -154 -324 0 -144 78 -206 278 -222 33 -3 74 -7 90 -10 17
-3 122 -7 235 -9 269 -5 376 14 530 90 120 60 261 189 387 354 7 9 30 39 52
66 69 89 311 428 368 515 31 47 82 124 114 173 l58 87 39 -52 c21 -29 149
-209 285 -399 453 -637 548 -734 781 -795 133 -35 235 -43 486 -39 135 2 261
6 280 10 110 19 142 29 183 55 58 36 81 79 79 147 -1 73 -22 112 -175 333 -75
107 -178 255 -229 329 -206 297 -597 857 -605 866 -4 6 -26 37 -48 70 -22 33
-42 62 -45 65 -3 3 -35 48 -72 100 -36 52 -79 115 -97 140 -27 39 -273 390
-301 430 -6 8 -193 276 -417 595 -617 882 -738 1046 -890 1209 -116 123 -290
213 -490 252 -68 13 -318 35 -326 28z"/>
<path d="M3578 6745 c-1 -1 -43 -5 -93 -9 -111 -7 -142 -12 -230 -38 -160 -47
-297 -144 -445 -318 -30 -36 -57 -67 -60 -70 -22 -19 -449 -609 -483 -666 -4
-7 100 -165 237 -360 135 -192 280 -400 323 -462 43 -62 86 -123 96 -134 10
-12 27 -37 38 -55 11 -18 22 -33 25 -33 4 0 139 187 199 275 38 56 250 354
262 370 5 6 40 55 79 110 39 55 162 231 275 390 459 649 447 630 455 738 3 51
0 70 -21 114 -22 43 -35 56 -78 77 -56 27 -80 33 -172 42 -33 3 -70 7 -81 9
-12 2 -82 6 -155 10 -74 4 -141 9 -151 10 -9 2 -18 2 -20 0z"/>
<path d="M4967 6744 c-1 -1 -22 -4 -47 -7 -137 -15 -258 -107 -295 -224 -14
-44 -16 -75 -12 -147 8 -114 28 -188 78 -295 130 -270 347 -440 639 -501 75
-16 149 -18 611 -19 l526 -2 17 23 c9 13 41 57 72 98 30 41 60 82 67 90 7 8
64 85 127 170 63 85 119 160 123 165 5 6 110 145 233 310 124 165 231 308 239
318 13 15 13 17 -3 18 -31 1 -2374 4 -2375 3z"/>
<path d="M7569 6695 c-30 -41 -436 -603 -481 -668 -7 -10 -65 -90 -128 -178
-142 -196 -216 -299 -255 -354 -16 -24 -86 -121 -155 -216 -69 -95 -141 -196
-161 -224 -19 -27 -94 -131 -165 -230 -71 -99 -136 -190 -144 -202 -24 -35
-226 -315 -252 -350 -12 -17 -30 -41 -38 -53 -13 -18 -60 -84 -126 -175 -44
-60 -248 -346 -369 -515 -77 -107 -164 -229 -195 -271 -30 -42 -61 -85 -68
-95 -7 -10 -61 -86 -120 -169 -235 -326 -256 -362 -287 -480 -49 -191 16 -302
218 -370 40 -13 99 -27 132 -30 112 -12 3543 -7 3607 5 109 21 201 88 245 178
25 52 28 66 26 157 -4 203 -86 398 -239 568 -114 127 -336 218 -624 257 -152
21 -247 22 -1038 17 -133 -1 -242 -1 -242 1 0 2 91 123 202 270 111 147 278
368 372 492 93 124 180 239 193 255 32 41 18 23 224 295 102 135 250 331 329
435 142 186 353 466 390 515 11 14 49 63 85 110 171 222 250 352 297 495 19
57 23 92 23 190 0 105 -3 126 -23 165 -30 60 -67 101 -127 139 -111 71 -223
83 -729 85 l-339 1 -38 -50z"/>
</g>
</svg>
