<?xml version="1.0" encoding="UTF-8"?>
<svg id="Layer_2" data-name="Layer 2" xmlns="http://www.w3.org/2000/svg" viewBox="0 0 884.83 463.37">
  <defs>
    <style>
      .cls-1 {
        fill: #f9f9f9;
        stroke-width: 0px;
      }
    </style>
  </defs>
  <g id="Lager_1" data-name="Lager 1">
    <g>
      <path class="cls-1" d="m421.37,429.39c-4.14-7.23-228.65-327.5-228.65-327.5-5.75-8.07-11.52-16.12-17.31-24.16-9.45-13.1-14.17-19.65-17.46-24.02-8.01-10.65-17.31-21.7-22.44-26.93C98.48-10.99,31.31,2.18,26.83,3.12c-5.4,1.13-19.87,5.18-24.23,14C-.04,22.47.09,28.19.09,28.19c0,0,.14,5.81,3.37,11.56,7.07,12.59,249.69,352.55,263.42,371.79.37.52,2.63,3.55,5.78,7.54,10.51,13.31,20.09,23.29,22.71,25.83,21.92,21.3,68.02,18.77,93.48,17.37,16.37-.9,29.36-3.39,34.08-12.47,1.68-3.24,1.9-6.52,1.8-8.85,0,0-.06-5.78-3.37-11.56Z"/>
      <path class="cls-1" d="m139.28,229.42c-9.93,13.97-19.83,27.96-29.7,41.97-9.71,13.78-19.4,27.58-29.07,41.39-8.92,12.75-17.83,25.51-26.72,38.29-7.57,10.88-15.12,21.77-22.64,32.67-5.68,8.23-11.32,16.5-16.93,24.76-3.72,5.47-7.83,10.91-10.79,16.84-3.71,7.43-5.16,17.77-.44,25.12,5.08,7.91,15.55,9.5,24.14,10.26,38.86,3.44,70.73,6.5,98.36-14.84,13.27-10.25,24.64-25.13,32.76-35.75,2.89-3.78,7.77-10.59,17.46-24.02,5.79-8.03,11.56-16.09,17.31-24.16,0,0,12.67-20.22,19.28-29.54-14.76-20.81-42.33-59.68-73.02-102.99Z"/>
      <path class="cls-1" d="m298.06,214.32c61.18-86.08,119.89-169.01,123.31-175.11,3.23-5.75,3.37-11.56,3.37-11.56.52-3.78.69-9.69-2.6-14.81-5.08-7.91-15.55-9.5-24.14-10.26-38.86-3.44-70.73-6.5-98.36,14.84-13.27,10.25-24.64,25.13-32.76,35.75-2.89,3.78-7.77,10.59-17.46,24.02-5.79,8.03-11.56,16.09-17.31,24.16,0,0-2.38,3.36-6.63,9.34,15.21,21.71,42.45,60.58,72.57,103.62Z"/>
      <path class="cls-1" d="m532.78,463.34c5,0,13.16-.03,20-.02l63-.07c10-.01,22.74-.03,34-.04,5,0,10-.01,16-.02,7.18,0,14.03-.02,18-.02,10.9-.01,23-.03,34-.04,12-.01,23-.03,34-.04,8,0,19-.02,28-.03,9.45-.01,19-.02,28-.03,7,0,14-.02,21-.02,8,0,11-.01,15-.02,11.54-.01,18.67-.99,26.4-5.76,10.94-6.76,15.11-17.44,14.62-29.99-1.48-38.44-29.91-67.58-65.96-77.11-17.36-4.59-35.72-5.67-53.62-5.66-6.98,0-13.97.11-20.95.12-22.21.04-44.41.07-66.62.11h-7.99c95.57-126.88,164.2-219.38,188.87-249.31,0,0,25.54-31.27,24.01-60.63-.61-11.73-6.45-20.92-16.37-27.02-7.88-4.84-15.25-5.61-27.06-6.85-7.53-.79-15.86-.85-20.08-.88-3.58-.03-6.58.02-8.7.08-16.85-.01-33.7-.03-50.56-.04-162.08,225.35-280.22,390.07-287.89,401.2-4.62,6.7-6.63,12.01-8.13,16.08-2.9,7.83-3.36,12.96-3.24,16.86.1,3.39.26,7.21,2.54,11.3,2.05,3.69,4.78,5.71,7.46,7.7,4.22,3.13,8.04,4.54,12,6,4.71,1.74,8.97,2.62,11,3,1.71.32,5.77,1.03,21.26,1.18,1.26.01,6.84,0,18-.02Z"/>
      <path class="cls-1" d="m571.04,119h75C673.52,81.77,735.04,0,735.04,0h-27c-11,0-21.92,0-33,0-17,0-33.96,0-49,0h-129c-7.93,0-15.94,2.45-22.56,6.8-7.38,4.85-12.45,11.79-13.55,20.62-2.31,18.58,4.92,37.48,15.13,52.69,3.69,5.49,7.91,10.66,12.76,15.16,23.67,22,52.4,23.72,62.21,23.72h20Z"/>
    </g>
  </g>
</svg>